<svg width="144" height="53" viewBox="0 0 144 53" fill="none" xmlns="http://www.w3.org/2000/svg">
<path d="M68.8661 8.59572C67.9306 7.62455 66.9326 6.90729 65.8723 6.44323C64.8119 5.97916 63.6403 5.74677 62.3576 5.74677C61.3238 5.74677 60.3151 5.94688 59.3307 6.34711C58.3464 6.74734 57.4934 7.30537 56.7717 8.02048C56.0234 8.76141 55.4624 9.58984 55.0879 10.5051C54.7134 11.421 54.5268 12.4316 54.5268 13.5391C54.5268 14.4077 54.638 15.2081 54.8612 15.9405C55.0836 16.6728 55.4179 17.3456 55.8634 17.9588C56.6476 19.0232 57.6118 19.8431 58.7568 20.4183C59.9018 20.9935 61.1372 21.2804 62.4652 21.2804C63.7121 21.2804 64.8707 21.0337 65.9397 20.5395C67.0087 20.046 67.9844 19.3087 68.8661 18.3296V21.2804C67.8947 21.9532 66.8501 22.4618 65.7324 22.8068C64.6139 23.1518 63.4581 23.3239 62.2643 23.3239C61.2305 23.3239 60.2239 23.1769 59.2439 22.8828C58.2639 22.5887 57.3463 22.1612 56.4912 21.5989C55.0656 20.6536 53.9766 19.4909 53.224 18.1116C52.4707 16.7323 52.0948 15.216 52.0948 13.5635C52.0948 12.1246 52.3466 10.8149 52.8495 9.63574C53.3531 8.45657 54.1208 7.3857 55.1546 6.42314C56.1525 5.50362 57.2574 4.81576 58.4684 4.36031C59.6801 3.90485 61.0031 3.67676 62.4372 3.67676C63.5686 3.67676 64.6641 3.84101 65.7245 4.1688C66.7848 4.49658 67.8316 5.00512 68.8647 5.69512V8.59572H68.8661Z" fill="url(#paint0_linear)"/>
<path d="M74.2906 22.8271V11.1386H76.148V13.5658C76.709 12.5523 77.3059 11.8286 77.9387 11.3939C78.5715 10.96 79.342 10.7427 80.251 10.7427C80.4999 10.7427 80.741 10.762 80.9727 10.8001C81.2044 10.8388 81.4362 10.8962 81.6679 10.9729L80.9727 12.774C80.7324 12.6972 80.5049 12.6398 80.2912 12.6011C80.0774 12.5631 79.8722 12.5437 79.6763 12.5437C78.5715 12.5437 77.7428 12.9253 77.1904 13.687C76.638 14.4495 76.3618 15.5964 76.3618 17.1299V22.8271H74.2906Z" fill="url(#paint1_linear)"/>
<path d="M85.1266 5.50438C85.1266 5.10414 85.2759 4.7613 85.5743 4.47583C85.8728 4.19036 86.2358 4.04834 86.6634 4.04834C87.0824 4.04834 87.4403 4.19323 87.7388 4.48228C88.0372 4.77205 88.1865 5.12064 88.1865 5.52948C88.1865 5.92971 88.0394 6.27041 87.7453 6.55157C87.4511 6.83274 87.0902 6.97332 86.6627 6.97332C86.2351 6.97332 85.8721 6.83274 85.5736 6.55157C85.2759 6.27113 85.1266 5.92182 85.1266 5.50438ZM85.621 22.8269V11.1384H87.7323V22.8269H85.621Z" fill="url(#paint2_linear)"/>
<path d="M92.4882 20.8596L94.2789 19.7098C94.6175 20.3317 95.0451 20.7979 95.5616 21.1084C96.0782 21.4197 96.6887 21.5747 97.3925 21.5747C98.0784 21.5747 98.633 21.4126 99.0562 21.0891C99.4795 20.7656 99.6912 20.3395 99.6912 19.8116C99.6912 19.4028 99.5462 19.0621 99.2571 18.7895C98.9673 18.517 98.4708 18.2659 97.767 18.0357L97.4198 17.9209C94.4439 16.9419 92.9567 15.7154 92.9567 14.2421C92.9567 13.2035 93.3577 12.3557 94.1591 11.7002C94.9612 11.0446 96.0029 10.7168 97.2863 10.7168C98.3467 10.7168 99.255 10.9191 100.013 11.3236C100.769 11.7281 101.313 12.3012 101.643 13.0422L99.9458 14.0384C99.6962 13.5019 99.3289 13.0888 98.8432 12.7997C98.3575 12.5107 97.7943 12.3658 97.1529 12.3658C96.5381 12.3658 96.0373 12.53 95.6499 12.8578C95.2625 13.1856 95.0688 13.6052 95.0688 14.1159C95.0688 14.8317 95.8795 15.4321 97.5009 15.9169C97.8036 16.0109 98.0439 16.0826 98.2226 16.1343C99.5498 16.5431 100.475 17.0093 100.995 17.5329C101.516 18.0565 101.777 18.7487 101.777 19.6087C101.777 20.7161 101.365 21.612 100.541 22.2977C99.717 22.9834 98.6416 23.3262 97.3143 23.3262C96.1736 23.3262 95.2051 23.1218 94.408 22.713C93.6081 22.3027 92.9696 21.6858 92.4882 20.8596Z" fill="url(#paint3_linear)"/>
<path d="M106.893 12.7862H104.648V11.1386H106.893V6.4248H109.031V11.1386H111.275V12.7862H109.031V22.8271H106.893V12.7862Z" fill="url(#paint4_linear)"/>
<path d="M126.682 11.1385V22.827H124.651V20.7061C124.161 21.5574 123.536 22.2073 122.774 22.6541C122.012 23.101 121.159 23.3248 120.215 23.3248C118.459 23.3248 117.045 22.7481 115.972 21.594C114.898 20.44 114.361 18.9136 114.361 17.0143C114.361 15.0899 114.882 13.5586 115.924 12.4217C116.967 11.2849 118.361 10.7168 120.107 10.7168C121.132 10.7168 122.02 10.9363 122.773 11.3745C123.526 11.8135 124.134 12.4669 124.597 13.3355V11.1385H126.682ZM124.651 17.0911C124.651 15.7713 124.275 14.7083 123.522 13.9036C122.769 13.0988 121.787 12.6964 120.576 12.6964C119.319 12.6964 118.339 13.0673 117.635 13.8082C116.932 14.5491 116.58 15.5834 116.58 16.9125C116.58 18.3262 116.935 19.4164 117.643 20.1825C118.351 20.9492 119.355 21.3322 120.656 21.3322C121.903 21.3322 122.881 20.96 123.589 20.2147C124.297 19.4695 124.651 18.428 124.651 17.0911Z" fill="url(#paint5_linear)"/>
<path d="M132.614 22.827V3.02637H134.752V22.8263H132.614V22.827Z" fill="url(#paint6_linear)"/>
<path d="M140.885 22.827V3.02637H143.022V22.8263H140.885V22.827Z" fill="url(#paint7_linear)"/>
<path d="M63.748 36.774H71.8198V37.4002C71.8198 40.3467 70.9467 42.6713 69.2005 44.3748C67.4542 46.0783 65.0709 46.9297 62.0513 46.9297C61.1337 46.9297 60.2584 46.8357 59.4255 46.6485C58.5926 46.4606 57.8242 46.1887 57.1204 45.8308C55.5169 44.9873 54.2787 43.8232 53.4055 42.3371C52.5324 40.8509 52.0962 39.1625 52.0962 37.2718C52.0962 35.7132 52.3567 34.3059 52.8782 33.05C53.3991 31.7941 54.1854 30.6888 55.2371 29.7348C56.1189 28.9344 57.1434 28.3297 58.3106 27.9209C59.4779 27.512 60.7692 27.3076 62.1862 27.3076C64.0658 27.3076 65.6958 27.6333 67.0769 28.2852C68.4579 28.9365 69.6022 29.9184 70.5112 31.2296L68.5598 32.7244C67.856 31.5918 66.9786 30.7426 65.9275 30.1759C64.8765 29.61 63.6555 29.3267 62.2658 29.3267C59.9937 29.3267 58.1499 30.059 56.733 31.5237C55.3168 32.9883 54.608 34.9048 54.608 37.2718C54.608 39.5032 55.3275 41.3343 56.766 42.7645C58.2044 44.1955 60.0375 44.9106 62.2651 44.9106C64.2251 44.9106 65.8572 44.3418 67.163 43.2049C68.468 42.0681 69.1919 40.5884 69.3346 38.7658H63.7487V36.774H63.748Z" fill="url(#paint8_linear)"/>
<path d="M76.7226 46.4318V34.7426H78.58V37.1698C79.1411 36.1563 79.738 35.4326 80.3707 34.998C81.0035 34.564 81.774 34.3467 82.683 34.3467C82.932 34.3467 83.173 34.366 83.4047 34.4041C83.6365 34.4428 83.8682 34.5002 84.0999 34.5769L83.4047 36.378C83.1644 36.3012 82.937 36.2438 82.7232 36.2051C82.5094 36.1671 82.3042 36.1477 82.1084 36.1477C81.0035 36.1477 80.1749 36.5293 79.6225 37.291C79.07 38.0535 78.7938 39.2004 78.7938 40.7339V46.4311H76.7226V46.4318Z" fill="url(#paint9_linear)"/>
<path d="M86.9575 40.6195C86.9575 39.7595 87.1225 38.9483 87.4518 38.1859C87.7811 37.4241 88.2625 36.7442 88.8953 36.1481C89.5281 35.5521 90.2448 35.0988 91.0469 34.7875C91.849 34.4769 92.7041 34.3213 93.6124 34.3213C94.5034 34.3213 95.3471 34.4791 96.1449 34.794C96.942 35.1088 97.6659 35.5693 98.3166 36.1733C98.9494 36.7607 99.43 37.4363 99.76 38.1981C100.089 38.9605 100.254 39.7674 100.254 40.6188C100.254 41.4702 100.089 42.2728 99.76 43.0267C99.43 43.7805 98.9494 44.4511 98.3166 45.0386C97.6659 45.6518 96.9377 46.1202 96.1313 46.4437C95.3249 46.7672 94.4855 46.9293 93.6124 46.9293C92.7127 46.9293 91.8597 46.7693 91.0533 46.4501C90.2469 46.1309 89.5274 45.6733 88.8953 45.0773C88.2625 44.464 87.7818 43.7826 87.4518 43.0331C87.1218 42.2843 86.9575 41.4795 86.9575 40.6195ZM89.1758 40.6195C89.1758 41.8539 89.6077 42.8997 90.4722 43.7554C91.336 44.6111 92.3834 45.0393 93.6124 45.0393C94.8327 45.0393 95.8709 44.6111 96.726 43.7554C97.5812 42.8997 98.0088 41.8539 98.0088 40.6195C98.0088 39.3851 97.5812 38.3394 96.726 37.483C95.8709 36.6273 94.8327 36.1991 93.6124 36.1991C92.3741 36.1991 91.3252 36.6273 90.465 37.483C89.6056 38.3394 89.1758 39.3851 89.1758 40.6195Z" fill="url(#paint10_linear)"/>
<path d="M107.122 34.7427V40.4908C107.122 42.1685 107.382 43.3419 107.904 44.0104C108.424 44.6789 109.305 45.0131 110.543 45.0131C111.781 45.0131 112.657 44.6832 113.169 44.0233C113.681 43.3634 113.937 42.1857 113.937 40.4915V34.7434H116.075V41.5645C116.075 43.3276 115.603 44.6624 114.659 45.5697C113.715 46.4763 112.324 46.9303 110.489 46.9303C108.672 46.9303 107.291 46.4749 106.347 45.5632C105.403 44.6523 104.931 43.3197 104.931 41.5645V34.7434H107.122V34.7427Z" fill="url(#paint11_linear)"/>
<path d="M121.766 52.1294V34.743H123.757V36.94C124.229 36.0965 124.852 35.4495 125.628 34.9984C126.403 34.5472 127.267 34.3213 128.22 34.3213C129.985 34.3213 131.401 34.8958 132.47 36.0456C133.539 37.1953 134.073 38.7195 134.073 40.6188C134.073 42.5518 133.55 44.0868 132.503 45.2236C131.456 46.3605 130.055 46.9293 128.3 46.9293C127.294 46.9293 126.416 46.7098 125.668 46.2715C124.92 45.8333 124.309 45.1791 123.837 44.3105V52.1287H121.766V52.1294ZM123.784 40.6195C123.784 41.9314 124.163 42.9829 124.92 43.7748C125.676 44.5666 126.679 44.9625 127.926 44.9625C129.147 44.9625 130.107 44.6003 130.806 43.8766C131.506 43.1529 131.855 42.148 131.855 40.862C131.855 39.4224 131.505 38.2942 130.806 37.4765C130.107 36.6588 129.133 36.25 127.886 36.25C126.612 36.25 125.61 36.638 124.879 37.4127C124.149 38.188 123.784 39.2567 123.784 40.6195Z" fill="url(#paint12_linear)"/>
<path d="M10.8512 46.3868H0.697418V4.16034L10.8512 0.392578V46.3868Z" fill="url(#paint13_linear)"/>
<path d="M21.8336 19.8613V46.3884H15.983V22.0282L21.8336 19.8613Z" fill="url(#paint14_linear)"/>
<path d="M35.0816 2.48535V46.3881H27.6907V22.0916L24.9271 21.0394V6.25024L35.0816 2.48535Z" fill="url(#paint15_linear)"/>
<defs>
<linearGradient id="paint0_linear" x1="2.67649" y1="11.9551" x2="156.187" y2="15.9342" gradientUnits="userSpaceOnUse">
<stop stop-color="#FFDF9F"/>
<stop offset="0.2551" stop-color="#D3AD7B"/>
<stop offset="0.2626" stop-color="#D3AD7B"/>
<stop offset="0.546" stop-color="#E2BC8B"/>
<stop offset="0.7283" stop-color="#D3AD7B"/>
<stop offset="0.8394" stop-color="#C89F75"/>
<stop offset="1" stop-color="#BC906F"/>
</linearGradient>
<linearGradient id="paint1_linear" x1="2.60152" y1="14.8491" x2="156.112" y2="18.8282" gradientUnits="userSpaceOnUse">
<stop stop-color="#FFDF9F"/>
<stop offset="0.2551" stop-color="#D3AD7B"/>
<stop offset="0.2626" stop-color="#D3AD7B"/>
<stop offset="0.546" stop-color="#E2BC8B"/>
<stop offset="0.7283" stop-color="#D3AD7B"/>
<stop offset="0.8394" stop-color="#C89F75"/>
<stop offset="1" stop-color="#BC906F"/>
</linearGradient>
<linearGradient id="paint2_linear" x1="2.69449" y1="11.2752" x2="156.204" y2="15.2543" gradientUnits="userSpaceOnUse">
<stop stop-color="#FFDF9F"/>
<stop offset="0.2551" stop-color="#D3AD7B"/>
<stop offset="0.2626" stop-color="#D3AD7B"/>
<stop offset="0.546" stop-color="#E2BC8B"/>
<stop offset="0.7283" stop-color="#D3AD7B"/>
<stop offset="0.8394" stop-color="#C89F75"/>
<stop offset="1" stop-color="#BC906F"/>
</linearGradient>
<linearGradient id="paint3_linear" x1="2.60898" y1="14.5678" x2="156.119" y2="18.5468" gradientUnits="userSpaceOnUse">
<stop stop-color="#FFDF9F"/>
<stop offset="0.2551" stop-color="#D3AD7B"/>
<stop offset="0.2626" stop-color="#D3AD7B"/>
<stop offset="0.546" stop-color="#E2BC8B"/>
<stop offset="0.7283" stop-color="#D3AD7B"/>
<stop offset="0.8394" stop-color="#C89F75"/>
<stop offset="1" stop-color="#BC906F"/>
</linearGradient>
<linearGradient id="paint4_linear" x1="2.67807" y1="11.8979" x2="156.188" y2="15.8771" gradientUnits="userSpaceOnUse">
<stop stop-color="#FFDF9F"/>
<stop offset="0.2551" stop-color="#D3AD7B"/>
<stop offset="0.2626" stop-color="#D3AD7B"/>
<stop offset="0.546" stop-color="#E2BC8B"/>
<stop offset="0.7283" stop-color="#D3AD7B"/>
<stop offset="0.8394" stop-color="#C89F75"/>
<stop offset="1" stop-color="#BC906F"/>
</linearGradient>
<linearGradient id="paint5_linear" x1="2.62403" y1="13.9758" x2="156.134" y2="17.9549" gradientUnits="userSpaceOnUse">
<stop stop-color="#FFDF9F"/>
<stop offset="0.2551" stop-color="#D3AD7B"/>
<stop offset="0.2626" stop-color="#D3AD7B"/>
<stop offset="0.546" stop-color="#E2BC8B"/>
<stop offset="0.7283" stop-color="#D3AD7B"/>
<stop offset="0.8394" stop-color="#C89F75"/>
<stop offset="1" stop-color="#BC906F"/>
</linearGradient>
<linearGradient id="paint6_linear" x1="2.73918" y1="9.53407" x2="156.25" y2="13.5132" gradientUnits="userSpaceOnUse">
<stop stop-color="#FFDF9F"/>
<stop offset="0.2551" stop-color="#D3AD7B"/>
<stop offset="0.2626" stop-color="#D3AD7B"/>
<stop offset="0.546" stop-color="#E2BC8B"/>
<stop offset="0.7283" stop-color="#D3AD7B"/>
<stop offset="0.8394" stop-color="#C89F75"/>
<stop offset="1" stop-color="#BC906F"/>
</linearGradient>
<linearGradient id="paint7_linear" x1="2.74576" y1="9.31994" x2="156.255" y2="13.299" gradientUnits="userSpaceOnUse">
<stop stop-color="#FFDF9F"/>
<stop offset="0.2551" stop-color="#D3AD7B"/>
<stop offset="0.2626" stop-color="#D3AD7B"/>
<stop offset="0.546" stop-color="#E2BC8B"/>
<stop offset="0.7283" stop-color="#D3AD7B"/>
<stop offset="0.8394" stop-color="#C89F75"/>
<stop offset="1" stop-color="#BC906F"/>
</linearGradient>
<linearGradient id="paint8_linear" x1="2.06463" y1="35.5628" x2="155.575" y2="39.5419" gradientUnits="userSpaceOnUse">
<stop stop-color="#FFDF9F"/>
<stop offset="0.2551" stop-color="#D3AD7B"/>
<stop offset="0.2626" stop-color="#D3AD7B"/>
<stop offset="0.546" stop-color="#E2BC8B"/>
<stop offset="0.7283" stop-color="#D3AD7B"/>
<stop offset="0.8394" stop-color="#C89F75"/>
<stop offset="1" stop-color="#BC906F"/>
</linearGradient>
<linearGradient id="paint9_linear" x1="1.99175" y1="38.375" x2="155.502" y2="42.3541" gradientUnits="userSpaceOnUse">
<stop stop-color="#FFDF9F"/>
<stop offset="0.2551" stop-color="#D3AD7B"/>
<stop offset="0.2626" stop-color="#D3AD7B"/>
<stop offset="0.546" stop-color="#E2BC8B"/>
<stop offset="0.7283" stop-color="#D3AD7B"/>
<stop offset="0.8394" stop-color="#C89F75"/>
<stop offset="1" stop-color="#BC906F"/>
</linearGradient>
<linearGradient id="paint10_linear" x1="1.99483" y1="38.2524" x2="155.505" y2="42.2315" gradientUnits="userSpaceOnUse">
<stop stop-color="#FFDF9F"/>
<stop offset="0.2551" stop-color="#D3AD7B"/>
<stop offset="0.2626" stop-color="#D3AD7B"/>
<stop offset="0.546" stop-color="#E2BC8B"/>
<stop offset="0.7283" stop-color="#D3AD7B"/>
<stop offset="0.8394" stop-color="#C89F75"/>
<stop offset="1" stop-color="#BC906F"/>
</linearGradient>
<linearGradient id="paint11_linear" x1="2.0026" y1="37.9551" x2="155.513" y2="41.9342" gradientUnits="userSpaceOnUse">
<stop stop-color="#FFDF9F"/>
<stop offset="0.2551" stop-color="#D3AD7B"/>
<stop offset="0.2626" stop-color="#D3AD7B"/>
<stop offset="0.546" stop-color="#E2BC8B"/>
<stop offset="0.7283" stop-color="#D3AD7B"/>
<stop offset="0.8394" stop-color="#C89F75"/>
<stop offset="1" stop-color="#BC906F"/>
</linearGradient>
<linearGradient id="paint12_linear" x1="1.94867" y1="40.0363" x2="155.459" y2="44.0155" gradientUnits="userSpaceOnUse">
<stop stop-color="#FFDF9F"/>
<stop offset="0.2551" stop-color="#D3AD7B"/>
<stop offset="0.2626" stop-color="#D3AD7B"/>
<stop offset="0.546" stop-color="#E2BC8B"/>
<stop offset="0.7283" stop-color="#D3AD7B"/>
<stop offset="0.8394" stop-color="#C89F75"/>
<stop offset="1" stop-color="#BC906F"/>
</linearGradient>
<linearGradient id="paint13_linear" x1="2.38237" y1="23.3019" x2="155.893" y2="27.2811" gradientUnits="userSpaceOnUse">
<stop stop-color="#FFDF9F"/>
<stop offset="0.2551" stop-color="#D3AD7B"/>
<stop offset="0.2626" stop-color="#D3AD7B"/>
<stop offset="0.546" stop-color="#E2BC8B"/>
<stop offset="0.7283" stop-color="#D3AD7B"/>
<stop offset="0.8394" stop-color="#C89F75"/>
<stop offset="1" stop-color="#BC906F"/>
</linearGradient>
<linearGradient id="paint14_linear" x1="2.13904" y1="32.6904" x2="155.649" y2="36.6695" gradientUnits="userSpaceOnUse">
<stop stop-color="#FFDF9F"/>
<stop offset="0.2551" stop-color="#D3AD7B"/>
<stop offset="0.2626" stop-color="#D3AD7B"/>
<stop offset="0.546" stop-color="#E2BC8B"/>
<stop offset="0.7283" stop-color="#D3AD7B"/>
<stop offset="0.8394" stop-color="#C89F75"/>
<stop offset="1" stop-color="#BC906F"/>
</linearGradient>
<linearGradient id="paint15_linear" x1="2.3724" y1="23.6852" x2="155.883" y2="27.6643" gradientUnits="userSpaceOnUse">
<stop stop-color="white"/>
<stop offset="0.15625" stop-color="white"/>
<stop offset="0.208333" stop-color="#E8D4B9"/>
<stop offset="0.2551" stop-color="#D3AD7B"/>
<stop offset="0.2626" stop-color="white"/>
<stop offset="0.546" stop-color="white"/>
<stop offset="0.7283" stop-color="white"/>
<stop offset="0.8394" stop-color="white"/>
<stop offset="1" stop-color="white"/>
</linearGradient>
</defs>
</svg>
